# xmcd
#
# Track frame offsets:
# 150
# 24525
# 44487
# 60865
# 77102
# 100358
# 115986
# 132791
# 151716
# 172056
# 192663
# 216243
# 230286
# 253641
#
# Disc length: 3690 seconds
#
# Revision: 0
# Processed by: cddbd v1.5.1PL2 Copyright (c) Steve Scherf et al.
# Submitted via: plextools 2.32a
#
DISCID=bc0e680e
DTITLE=O's - あなたとならば
DYEAR=2006
DGENRE=Pop
TTITLE0=O's - あなたとならば
TTITLE1=O's - 杏の花咲く頃
TTITLE2=O's - 四つのお願い
TTITLE3=O's - 初恋のひと
TTITLE4=O's - 恋の迷い子
TTITLE5=O's - I feel love〜あの人を待ちながら
TTITLE6=O's - 流星にのせて
TTITLE7=O's - 虹の世界
TTITLE8=O's - 今日から明日へ
TTITLE9=O's - いそしぎの渚
TTITLE10=O's - あなたとならば(アルバムバージョン)
TTITLE11=O's - 白い色は恋人の色
TTITLE12=O's - あなたとならば(聡美アルバムカラオケバージョン)
TTITLE13=O's - あなたとならば(都弥可アルバムカラオケバージョン)
EXTD=
EXTT0=
EXTT1=
EXTT2=
EXTT3=
EXTT4=
EXTT5=
EXTT6=
EXTT7=
EXTT8=
EXTT9=
EXTT10=
EXTT11=
EXTT12=
EXTT13=
PLAYORDER=
